# Blender 4.0.2
# www.blender.org
mtllib sword.mtl
o katana
v 0.866926 2.905354 -0.256711
v 0.889852 2.971555 -0.320213
v 0.884070 2.916400 -0.239006
v 0.906996 2.982600 -0.302508
v 0.865131 2.906785 -0.255866
v 0.888057 2.972986 -0.319368
v 0.882276 2.917831 -0.238161
v 0.905201 2.984032 -0.301663
v 0.847260 2.846494 -0.198727
v 0.865442 2.860631 -0.184056
v 0.845465 2.847926 -0.197882
v 0.863647 2.862063 -0.183211
v 0.829585 2.792965 -0.145545
v 0.847758 2.807074 -0.130846
v 0.827791 2.794396 -0.144700
v 0.845964 2.808506 -0.130001
v 0.814311 2.745837 -0.098115
v 0.832415 2.759736 -0.083206
v 0.812516 2.747268 -0.097270
v 0.830621 2.761168 -0.082361
v 0.796936 2.692847 -0.045210
v 0.815704 2.709001 -0.032715
v 0.795142 2.694279 -0.044366
v 0.813909 2.710433 -0.031870
v 0.780186 2.639154 0.010373
v 0.799122 2.656479 0.021243
v 0.778473 2.640520 0.011179
v 0.797410 2.657845 0.022049
v 0.764134 2.585808 0.066692
v 0.783119 2.603295 0.077390
v 0.762422 2.587174 0.067498
v 0.781406 2.604661 0.078196
v 0.754704 2.551551 0.104893
v 0.765390 2.545128 0.138572
v 0.753078 2.552848 0.105659
v 0.763807 2.546391 0.139317
v 0.892869 2.964100 -0.328637
v 0.918463 2.980591 -0.302205
v 0.877157 2.976634 -0.321243
v 0.902752 2.993125 -0.294811
v 0.893509 2.965948 -0.330409
v 0.919103 2.982439 -0.303978
v 0.903392 2.994972 -0.296583
v 0.877797 2.978482 -0.323015
v 0.895906 2.972985 -0.322605
v 0.909419 2.981692 -0.308650
v 0.901124 2.988309 -0.304746
v 0.887611 2.979603 -0.318701
v 0.947088 3.120777 -0.464372
v 0.946836 3.124534 -0.465807
v 0.959795 3.132884 -0.452424
v 0.960601 3.129483 -0.450416
v 0.954271 3.137291 -0.449824
v 0.952305 3.136101 -0.446512
v 0.941311 3.128942 -0.463207
v 0.938792 3.127394 -0.460468
v 0.878355 2.912718 -0.244908
v 0.872640 2.909036 -0.250809
v 0.895566 2.975236 -0.314311
v 0.901281 2.978919 -0.308409
v 0.870846 2.910467 -0.249965
v 0.876561 2.914149 -0.244063
v 0.899487 2.980350 -0.307565
v 0.893772 2.976668 -0.313467
v 0.859381 2.855919 -0.188946
v 0.853320 2.851207 -0.193836
v 0.851526 2.852638 -0.192992
v 0.857587 2.857351 -0.188102
v 0.841701 2.802371 -0.135745
v 0.835643 2.797668 -0.140645
v 0.833849 2.799099 -0.139801
v 0.839906 2.803802 -0.134901
v 0.826380 2.755103 -0.088176
v 0.820346 2.750470 -0.093145
v 0.818551 2.751902 -0.092301
v 0.824586 2.756535 -0.087331
v 0.809448 2.703616 -0.036880
v 0.803192 2.698232 -0.041045
v 0.801398 2.699663 -0.040201
v 0.807653 2.705048 -0.036035
v 0.792810 2.650704 0.017620
v 0.786498 2.644929 0.013997
v 0.784785 2.646295 0.014802
v 0.791098 2.652070 0.018426
v 0.776790 2.597466 0.073824
v 0.770462 2.591637 0.070258
v 0.768750 2.593003 0.071064
v 0.775078 2.598832 0.074630
v 0.760820 2.543880 0.130978
v 0.756391 2.543393 0.122390
v 0.754807 2.544656 0.123135
v 0.759237 2.545143 0.131723
v 0.902062 2.967585 -0.321287
v 0.912321 2.974195 -0.310693
v 0.893429 2.989266 -0.301802
v 0.883170 2.982656 -0.312396
v 0.902832 2.969807 -0.323418
v 0.913091 2.976416 -0.312824
v 0.894198 2.991488 -0.303933
v 0.883939 2.984878 -0.314527
v 0.900962 2.974502 -0.319198
v 0.906777 2.978249 -0.313193
v 0.896068 2.986792 -0.308153
v 0.890253 2.983046 -0.314158
v 0.951156 3.127318 -0.461346
v 0.955475 3.130101 -0.456885
v 0.957959 3.126040 -0.454959
v 0.952144 3.122294 -0.460965
v 0.949951 3.134508 -0.454285
v 0.945631 3.131725 -0.458746
v 0.941434 3.130837 -0.455925
v 0.947249 3.134584 -0.449919
v 0.883173 2.917115 -0.238584
v 0.906099 2.983316 -0.302086
v 0.866028 2.906070 -0.256289
v 0.888954 2.972270 -0.319790
v 0.864545 2.861347 -0.183634
v 0.846362 2.847210 -0.198304
v 0.846861 2.807790 -0.130424
v 0.828688 2.793681 -0.145122
v 0.831518 2.760452 -0.082784
v 0.813413 2.746553 -0.097693
v 0.814807 2.709717 -0.032292
v 0.796039 2.693563 -0.044788
v 0.798266 2.657162 0.021646
v 0.779330 2.639837 0.010776
v 0.782263 2.603978 0.077793
v 0.763278 2.586491 0.067095
v 0.764598 2.545760 0.138945
v 0.753891 2.552200 0.105276
v 0.913134 2.988340 -0.295653
v 0.882357 2.968511 -0.327436
v 0.913903 2.990562 -0.297784
v 0.883127 2.970733 -0.329567
v 0.905934 2.985427 -0.306014
v 0.891096 2.975867 -0.321337
v 0.957668 3.135497 -0.450467
v 0.957116 3.133219 -0.447780
v 0.943438 3.126329 -0.465163
v 0.942277 3.123659 -0.463104
v 0.952713 3.132304 -0.455585
v 0.948393 3.129521 -0.460046
v 0.760029 2.544512 0.131350
v 0.755599 2.544024 0.122763
vn 0.7336 -0.5853 -0.3453
vn 0.6369 0.4150 0.6497
vn 0.6349 0.4089 0.6555
vn 0.6346 0.4091 0.6557
vn 0.6367 0.4151 0.6498
vn -0.7336 0.5853 0.3453
vn -0.6368 -0.4150 -0.6498
vn -0.6347 -0.4091 -0.6556
vn -0.6348 -0.4089 -0.6556
vn -0.6367 -0.4152 -0.6499
vn 0.6397 0.4227 0.6419
vn 0.6396 0.4228 0.6420
vn -0.2985 -0.7340 0.6100
vn -0.3289 -0.6807 0.6545
vn -0.3276 -0.6772 0.6588
vn -0.6395 -0.4228 -0.6421
vn -0.6412 -0.4275 -0.6373
vn -0.6411 -0.4276 -0.6373
vn -0.7337 0.5853 0.3453
vn 0.6410 0.4276 0.6374
vn 0.6412 0.4274 0.6373
vn 0.7337 -0.5853 -0.3453
vn -0.6414 -0.4287 -0.6363
vn -0.6433 -0.4348 -0.6301
vn -0.6434 -0.4348 -0.6301
vn 0.6414 0.4278 0.6369
vn 0.6427 0.4322 0.6325
vn 0.6426 0.4324 0.6326
vn 0.6466 0.4455 0.6192
vn 0.6468 0.4454 0.6191
vn -0.7337 0.5851 0.3456
vn 0.7336 -0.5854 -0.3450
vn 0.7336 -0.5855 -0.3450
vn -0.6472 -0.4471 -0.6174
vn -0.6469 -0.4474 -0.6176
vn -0.6522 -0.4632 -0.6001
vn -0.6521 -0.4632 -0.6002
vn -0.7337 0.5851 0.3455
vn 0.7336 -0.5855 -0.3449
vn -0.7337 0.5849 0.3457
vn -0.7335 0.5850 0.3460
vn -0.7335 0.5848 0.3465
vn -0.7339 0.5845 0.3461
vn 0.6481 0.4506 0.6139
vn 0.6482 0.4505 0.6138
vn 0.7335 -0.5856 -0.3450
vn 0.7335 -0.5857 -0.3449
vn -0.6737 -0.6925 -0.2580
vn -0.6779 -0.5953 -0.4314
vn -0.6779 -0.5953 -0.4313
vn 0.7334 -0.5860 -0.3446
vn -0.6780 -0.5952 -0.4313
vn 0.6477 0.4496 0.6151
vn 0.6479 0.4494 0.6150
vn -0.6749 0.6189 0.4017
vn -0.6100 0.6483 0.4557
vn -0.1845 -0.6606 0.7278
vn -0.1540 -0.7138 0.6832
vn -0.1554 -0.7174 0.6791
vn -0.2958 -0.6466 0.7031
vn -0.2551 -0.6332 0.7308
vn -0.2602 -0.6338 0.7284
vn -0.2947 -0.6441 0.7059
vn -0.1875 -0.7490 0.6355
vn -0.2278 -0.7614 0.6069
vn -0.2228 -0.7609 0.6094
vn -0.1886 -0.7513 0.6325
vn 0.2464 0.7065 -0.6634
vn 0.2383 0.7128 -0.6596
vn 0.2419 0.7117 -0.6595
vn 0.2447 0.7038 -0.6669
vn 0.6749 -0.6191 -0.4016
vn 0.6100 -0.6483 -0.4556
vn -0.8544 -0.1736 -0.4897
vn 0.8545 0.1737 0.4895
vn 0.2385 0.6936 -0.6797
vn 0.2466 0.6872 -0.6833
vn 0.2430 0.6883 -0.6835
vn 0.2402 0.6965 -0.6762
vn 0.2375 0.6969 -0.6767
vn 0.2251 0.7044 -0.6732
vn 0.2262 0.7017 -0.6756
vn 0.2474 0.7033 -0.6664
vn 0.2597 0.6957 -0.6697
vn 0.2586 0.6984 -0.6673
vn -0.6348 -0.4090 -0.6556
vn -0.7574 -0.2960 -0.5820
vn -0.7448 -0.2342 -0.6249
vn -0.6099 -0.3432 -0.7143
vn 0.2425 0.7001 -0.6716
vn 0.2424 0.7002 -0.6716
vn 0.2424 0.7001 -0.6716
vn 0.6348 0.4090 0.6556
vn 0.7574 0.2960 0.5820
vn 0.7812 0.3394 0.5239
vn 0.6543 0.4714 0.5913
vn -0.6434 0.6342 0.4288
vn -0.5418 0.6719 0.5049
vn 0.7325 0.0549 -0.6786
vn 0.7845 0.0191 -0.6199
vn 0.7438 0.0474 -0.6667
vn 0.6686 0.5311 0.5205
vn 0.5007 0.6415 0.5811
vn 0.4971 0.5660 0.6577
vn -0.4067 0.8858 -0.2236
vn -0.4840 0.8488 -0.2127
vn -0.4229 0.8786 -0.2219
vn -0.5792 -0.2729 -0.7681
vn -0.4134 -0.3891 -0.8232
vn -0.4607 -0.4608 -0.7585
vn 0.6434 -0.6342 -0.4288
vn 0.5418 -0.6719 -0.5049
vn 0.8743 -0.4577 -0.1615
vn 0.8111 -0.5261 -0.2556
vn -0.3575 0.9303 -0.0824
vn -0.3526 0.9206 -0.1679
vn -0.3539 0.9232 -0.1501
vn 0.6581 -0.0622 -0.7503
vn 0.6785 0.0201 -0.7344
vn 0.6746 0.0029 -0.7382
vn -0.8743 0.4577 0.1615
vn -0.8111 0.5261 0.2556
vn 0.2424 0.7002 -0.6715
vn 0.2518 0.7022 -0.6660
vn 0.2478 0.7013 -0.6684
vn 0.8343 -0.5035 -0.2245
vn 0.7867 -0.5471 -0.2861
vn 0.2330 0.6980 -0.6771
vn 0.2371 0.6989 -0.6747
vn -0.1764 -0.7418 0.6470
vn -0.1729 -0.7412 0.6486
vn -0.3068 -0.6538 0.6917
vn -0.3103 -0.6542 0.6898
vn -0.8343 0.5037 0.2241
vn -0.7867 0.5469 0.2863
vn 0.7338 -0.5855 -0.3445
vn 0.7336 -0.5856 -0.3448
vn 0.7335 -0.5860 -0.3444
vn 0.7339 -0.5857 -0.3440
vn -0.4485 -0.7988 0.4010
vn -0.4485 -0.7987 0.4012
vn -0.4758 -0.8054 0.3534
vn -0.4760 -0.8053 0.3535
vn -0.5019 -0.8094 0.3048
vn -0.5021 -0.8093 0.3050
vn 0.7337 -0.5854 -0.3450
vn -0.7337 0.5850 0.3456
vn -0.7338 0.5849 0.3456
vn -0.7338 0.5850 0.3456
vn -0.7339 0.5845 0.3460
vn 0.7337 -0.5852 -0.3452
vn -0.7337 0.5853 0.3452
vn 0.7337 -0.5853 -0.3452
vn -0.4762 -0.8051 0.3537
vn -0.5022 -0.8092 0.3051
vn -0.4484 -0.7988 0.4011
vn 0.2425 0.7000 -0.6716
vn -0.7195 -0.1448 -0.6792
vn 0.8069 0.3971 0.4373
vn 0.4911 0.5084 0.7074
vn -0.4911 -0.5084 -0.7073
vn 0.3319 0.5906 0.7356
vn -0.3318 -0.5905 -0.7357
vn 0.6483 0.4505 0.6138
vn 0.6480 0.4493 0.6150
vn -0.6520 -0.4633 -0.6002
vn -0.6738 -0.6925 -0.2579
vn 0.6469 0.4453 0.6191
vn -0.6471 -0.4472 -0.6175
vn 0.6413 0.4278 0.6369
vn 0.6429 0.4321 0.6325
vn 0.6411 0.4275 0.6373
vn -0.6410 -0.4276 -0.6374
vn -0.6414 -0.4287 -0.6362
vn 0.6395 0.4229 0.6420
vn -0.6370 -0.4148 -0.6498
vn 0.6368 0.4151 0.6498
vn -0.6346 -0.4092 -0.6556
vn 0.6347 0.4090 0.6556
vt 0.195831 0.826861
vt 0.195747 0.954738
vt 0.180553 0.954737
vt 0.180549 0.826750
vt 0.178475 0.826750
vt 0.178480 0.954737
vt 0.176412 0.954737
vt 0.176399 0.826750
vt 0.145866 0.826961
vt 0.145949 0.954747
vt 0.130681 0.954753
vt 0.130632 0.827067
vt 0.228400 0.827080
vt 0.228282 0.954754
vt 0.226208 0.954753
vt 0.226331 0.827079
vt 0.176429 0.717677
vt 0.178501 0.717678
vt 0.522503 0.197197
vt 0.526615 0.198642
vt 0.527499 0.214580
vt 0.493136 0.212901
vt 0.228438 0.712394
vt 0.226366 0.712394
vt 0.226449 0.607668
vt 0.228520 0.607668
vt 0.180575 0.717678
vt 0.195837 0.715915
vt 0.130641 0.712375
vt 0.145909 0.714142
vt 0.145868 0.609329
vt 0.130596 0.607665
vt 0.130714 0.514983
vt 0.145989 0.516503
vt 0.176448 0.612662
vt 0.178520 0.612662
vt 0.180595 0.612662
vt 0.195897 0.610996
vt 0.228443 0.515005
vt 0.226372 0.515006
vt 0.226339 0.411094
vt 0.228409 0.411090
vt 0.180612 0.519542
vt 0.195838 0.518030
vt 0.176472 0.519541
vt 0.178543 0.519541
vt 0.178562 0.419960
vt 0.176485 0.419960
vt 0.176607 0.315282
vt 0.178586 0.315282
vt 0.130789 0.411093
vt 0.145994 0.414034
vt 0.180637 0.419960
vt 0.195888 0.416993
vt 0.227793 0.304416
vt 0.225824 0.304421
vt 0.225604 0.197861
vt 0.227574 0.197829
vt 0.131351 0.304396
vt 0.146421 0.308018
vt 0.180566 0.315282
vt 0.195679 0.311651
vt 0.146643 0.201463
vt 0.131632 0.197848
vt 0.134952 0.127633
vt 0.148798 0.103932
vt 0.176646 0.208704
vt 0.178613 0.208705
vt 0.180583 0.208705
vt 0.195585 0.205090
vt 0.178640 0.067444
vt 0.176819 0.067444
vt 0.176774 0.041340
vt 0.178644 0.041340
vt 0.180456 0.092534
vt 0.194315 0.097392
vt 0.222305 0.127629
vt 0.224175 0.127572
vt 0.176814 0.092534
vt 0.178635 0.092534
vt 0.609978 0.212883
vt 0.635024 0.212336
vt 0.635693 0.214028
vt 0.611014 0.216818
vt 0.649236 0.195445
vt 0.654586 0.195475
vt 0.663693 0.212206
vt 0.649354 0.211804
vt 0.601859 0.192168
vt 0.643884 0.195485
vt 0.735416 0.191669
vt 0.775399 0.196271
vt 0.774001 0.213186
vt 0.741600 0.212895
vt 0.629160 0.225858
vt 0.603318 0.225903
vt 0.774180 0.216171
vt 0.741779 0.217454
vt 0.527736 0.217451
vt 0.492754 0.218329
vt 0.663514 0.213932
vt 0.649509 0.213723
vt 0.756718 0.227820
vt 0.731063 0.226344
vt 0.544508 0.228800
vt 0.527879 0.235462
vt 0.670134 0.225894
vt 0.649582 0.228293
vt 0.662687 0.648507
vt 0.673120 0.648507
vt 0.673036 0.957000
vt 0.662742 0.957620
vt 0.647816 0.579553
vt 0.661215 0.579594
vt 0.661030 0.590099
vt 0.647595 0.591599
vt 0.668381 0.553107
vt 0.648170 0.552727
vt 0.702250 0.648566
vt 0.713890 0.648609
vt 0.711926 0.959563
vt 0.700483 0.958759
vt 0.627224 0.966280
vt 0.614123 0.965834
vt 0.613487 0.959512
vt 0.624954 0.958713
vt 0.648164 0.557812
vt 0.635217 0.558491
vt 0.628438 0.553085
vt 0.684834 0.965813
vt 0.671152 0.963242
vt 0.684115 0.957854
vt 0.662739 0.963421
vt 0.654327 0.963235
vt 0.652456 0.956988
vt 0.639944 0.648546
vt 0.651567 0.648519
vt 0.641357 0.957826
vt 0.611617 0.648647
vt 0.622967 0.648601
vt 0.711285 0.965873
vt 0.698208 0.966309
vt 0.640624 0.965796
vt 0.685277 0.648521
vt 0.661230 0.558564
vt 0.661375 0.569092
vt 0.648005 0.569091
vt 0.688749 0.216675
vt 0.696490 0.226316
vt 0.689412 0.212626
vt 0.559289 0.218512
vt 0.569908 0.227532
vt 0.696761 0.192359
vt 0.563955 0.194350
vt 0.559076 0.214052
vt 0.210590 0.201472
vt 0.208467 0.103934
vt 0.176816 0.080477
vt 0.178637 0.080477
vt 0.210753 0.308034
vt 0.161495 0.311643
vt 0.161645 0.205085
vt 0.162953 0.097391
vt 0.211132 0.414036
vt 0.161236 0.416992
vt 0.211096 0.516518
vt 0.161246 0.518023
vt 0.211176 0.609332
vt 0.211097 0.714154
vt 0.161168 0.715909
vt 0.161147 0.610994
vt 0.161123 0.826856
vt 0.211093 0.826971
vt 0.161180 0.954741
vt 0.210979 0.954744
vt 0.180459 0.080477
vt 0.180461 0.067445
vt 0.634664 0.568995
vt 0.634413 0.579502
vt 0.634217 0.590007
vt 0.810099 0.217498
vt 0.773594 0.234714
vt 0.810254 0.211846
vt 0.129665 0.197816
vt 0.133083 0.127575
vt 0.180514 0.041340
vt 0.128718 0.411088
vt 0.129376 0.304390
vt 0.128527 0.607664
vt 0.128640 0.514982
vt 0.128563 0.827067
vt 0.128570 0.712376
vt 0.779868 0.194776
vt 0.128612 0.954754
s 1
usemtl katana
f 57/1/1 60/2/1 4/3/1 3/4/1
f 113/5/2 114/6/3 8/7/4 7/8/5
f 61/9/6 64/10/6 6/11/6 5/12/6
f 115/13/7 116/14/8 2/15/9 1/16/10
f 113/5/2 7/8/5 12/17/11 117/18/12
f 116/19/13 6/20/14 39/21/15 132/22/13
f 118/23/16 9/24/16 13/25/17 120/26/18
f 57/1/1 3/4/1 10/27/1 65/28/1
f 61/9/6 5/12/6 11/29/6 67/30/6
f 115/13/7 1/16/10 9/24/16 118/23/16
f 71/31/19 15/32/6 19/33/6 75/34/19
f 117/18/12 12/17/11 16/35/20 119/36/21
f 67/30/6 11/29/6 15/32/6 71/31/19
f 65/28/1 10/27/1 14/37/22 69/38/22
f 122/39/23 17/40/23 21/41/24 124/42/25
f 69/38/22 14/37/22 18/43/22 73/44/22
f 120/26/18 13/25/17 17/40/23 122/39/23
f 119/36/21 16/35/20 20/45/26 121/46/26
f 123/47/27 24/48/28 28/49/29 125/50/30
f 121/46/26 20/45/26 24/48/28 123/47/27
f 75/34/19 19/33/6 23/51/31 79/52/31
f 73/44/22 18/43/22 22/53/32 77/54/33
f 126/55/34 25/56/35 29/57/36 128/58/37
f 79/52/31 23/51/31 27/59/38 83/60/31
f 77/54/33 22/53/32 26/61/39 81/62/33
f 124/42/25 21/41/24 25/56/35 126/55/34
f 87/63/40 31/64/41 35/65/42 91/66/43
f 125/50/30 28/49/29 32/67/44 127/68/45
f 83/60/31 27/59/38 31/64/41 87/63/40
f 81/62/33 26/61/39 30/69/46 85/70/47
f 144/71/48 91/72/48 35/73/49 130/74/50
f 85/70/47 30/69/46 34/75/51 89/76/51
f 128/58/37 29/57/36 33/77/52 130/78/50
f 127/68/45 32/67/44 36/79/53 129/80/54
f 95/81/55 40/82/56 43/83/56 99/84/55
f 114/85/57 4/86/58 38/87/59 131/88/57
f 63/89/60 8/90/61 40/82/62 95/81/63
f 59/91/64 2/92/65 37/93/66 93/94/67
f 99/84/68 43/83/69 47/95/70 103/96/71
f 93/94/72 37/93/73 41/97/73 97/98/72
f 132/22/74 39/21/74 44/99/74 134/100/74
f 131/88/75 38/87/75 42/101/75 133/102/75
f 97/98/76 41/97/77 45/103/78 101/104/79
f 134/100/80 44/99/81 48/105/82 136/106/80
f 133/102/83 42/101/84 46/107/85 135/108/83
f 136/109/86 48/110/87 56/111/88 140/112/89
f 142/113/90 105/114/91 50/115/92 139/116/90
f 135/108/93 46/107/94 52/117/95 138/118/96
f 103/119/97 47/120/98 54/121/98 112/122/97
f 106/123/99 51/124/100 52/125/100 107/126/101
f 137/127/102 53/128/103 54/129/104 138/118/96
f 110/130/105 55/131/106 56/111/106 111/132/107
f 139/133/108 50/134/109 49/135/110 140/112/89
f 101/136/111 45/137/112 49/135/112 108/138/111
f 46/139/113 102/140/114 107/126/114 52/125/113
f 102/140/114 101/136/111 108/138/111 107/126/114
f 53/141/115 109/142/116 112/122/117 54/121/115
f 109/142/116 110/130/105 111/132/107 112/122/117
f 50/134/118 105/143/119 108/138/120 49/135/118
f 105/143/119 106/123/99 107/126/101 108/138/120
f 48/110/121 104/144/122 111/132/122 56/111/121
f 104/144/122 103/119/97 112/122/97 111/132/122
f 137/127/90 51/145/123 106/146/123 141/147/90
f 141/147/90 106/146/123 105/114/91 142/113/90
f 42/101/84 98/148/124 102/149/125 46/107/85
f 98/148/124 97/98/76 101/104/79 102/149/125
f 38/87/126 94/150/127 98/148/127 42/101/126
f 94/150/127 93/94/72 97/98/72 98/148/127
f 44/99/81 100/151/128 104/152/129 48/105/82
f 100/151/128 99/84/68 103/96/71 104/152/129
f 4/86/58 60/153/130 94/150/131 38/87/59
f 60/153/130 59/91/64 93/94/67 94/150/131
f 6/20/14 64/154/132 96/155/133 39/21/15
f 64/154/132 63/89/60 95/81/63 96/155/133
f 39/21/134 96/155/135 100/151/135 44/99/134
f 96/155/135 95/81/55 99/84/55 100/151/135
f 29/57/136 86/156/137 90/157/138 33/77/139
f 86/156/137 85/70/47 89/76/51 90/157/138
f 129/80/140 36/79/141 92/158/142 143/159/143
f 143/159/143 92/158/142 91/72/144 144/71/145
f 25/56/146 82/160/33 86/156/137 29/57/136
f 82/160/33 81/62/33 85/70/47 86/156/137
f 28/49/147 84/161/31 88/162/148 32/67/149
f 84/161/31 83/60/31 87/63/40 88/162/148
f 32/67/149 88/162/148 92/163/150 36/79/150
f 88/162/148 87/63/40 91/66/43 92/163/150
f 21/41/39 78/164/33 82/160/33 25/56/146
f 78/164/33 77/54/33 81/62/33 82/160/33
f 24/48/38 80/165/31 84/161/31 28/49/147
f 80/165/31 79/52/31 83/60/31 84/161/31
f 17/40/1 74/166/22 78/164/33 21/41/39
f 74/166/22 73/44/22 77/54/33 78/164/33
f 20/45/19 76/167/19 80/165/31 24/48/38
f 76/167/19 75/34/19 79/52/31 80/165/31
f 13/25/22 70/168/22 74/166/22 17/40/1
f 70/168/22 69/38/22 73/44/22 74/166/22
f 9/24/151 66/169/22 70/168/22 13/25/22
f 66/169/22 65/28/1 69/38/22 70/168/22
f 12/17/152 68/170/19 72/171/19 16/35/152
f 68/170/19 67/30/6 71/31/19 72/171/19
f 16/35/152 72/171/19 76/167/19 20/45/19
f 72/171/19 71/31/19 75/34/19 76/167/19
f 7/8/19 62/172/19 68/170/19 12/17/152
f 62/172/19 61/9/6 67/30/6 68/170/19
f 1/16/151 58/173/22 66/169/22 9/24/151
f 58/173/22 57/1/1 65/28/1 66/169/22
f 7/8/19 8/7/19 63/174/19 62/172/19
f 62/172/19 63/174/19 64/10/6 61/9/6
f 1/16/151 2/15/153 59/175/22 58/173/22
f 58/173/22 59/175/22 60/2/1 57/1/1
f 89/176/154 143/159/143 144/71/145 90/177/155
f 34/75/156 129/80/140 143/159/143 89/176/154
f 109/178/157 141/147/90 142/113/90 110/179/90
f 53/128/157 137/127/90 141/147/90 109/178/157
f 55/131/158 139/133/108 140/112/89 56/111/88
f 51/145/159 137/127/102 138/118/96 52/117/95
f 47/95/160 135/108/93 138/118/96 54/129/104
f 110/179/90 142/113/90 139/116/90 55/180/90
f 45/137/161 136/109/86 140/112/89 49/135/110
f 43/83/69 133/102/83 135/108/83 47/95/70
f 41/97/77 134/181/80 136/182/80 45/103/78
f 40/82/162 131/88/162 133/102/162 43/83/162
f 37/93/163 132/183/163 134/181/163 41/97/163
f 8/90/61 114/85/57 131/88/57 40/82/62
f 30/69/164 127/68/45 129/80/54 34/75/165
f 31/64/166 128/184/37 130/185/50 35/65/49
f 90/177/167 144/71/48 130/74/50 33/186/52
f 26/61/168 125/50/30 127/68/45 30/69/164
f 23/51/25 124/187/25 126/188/34 27/59/169
f 27/59/169 126/188/34 128/184/37 31/64/166
f 18/43/170 121/46/26 123/47/27 22/53/171
f 22/53/171 123/47/27 125/50/30 26/61/168
f 14/37/172 119/36/21 121/46/26 18/43/170
f 15/32/173 120/189/18 122/190/23 19/33/174
f 19/33/174 122/190/23 124/187/25 23/51/25
f 10/27/175 117/18/12 119/36/21 14/37/172
f 5/12/176 115/191/7 118/192/16 11/29/16
f 11/29/16 118/192/16 120/189/18 15/32/173
f 2/92/65 116/193/13 132/183/13 37/93/66
f 3/4/177 113/5/2 117/18/12 10/27/175
f 5/12/176 6/11/178 116/194/8 115/191/7
f 3/4/177 4/3/179 114/6/3 113/5/2
