# Blender 4.0.2
# www.blender.org
mtllib ConeLight.mtl
o Cone
v 0.000000 -1.000000 -1.000000
v 0.500000 -1.000000 -0.866025
v 0.866025 -1.000000 -0.500000
v 1.000000 -1.000000 0.000000
v 0.866025 -1.000000 0.500000
v 0.500000 -1.000000 0.866025
v 0.000000 -1.000000 1.000000
v -0.500000 -1.000000 0.866025
v -0.866025 -1.000000 0.500000
v -1.000000 -1.000000 0.000000
v -0.866025 -1.000000 -0.500000
v -0.500000 -1.000000 -0.866025
v 0.000000 1.000000 0.000000
v -0.000000 1.169256 -0.000000
v 0.415345 1.486547 0.301762
v -0.158645 1.486547 0.488266
v -0.513394 1.486549 -0.000000
v -0.158645 1.486547 -0.488266
v 0.415345 1.486547 -0.301762
v 0.158645 1.999948 0.488266
v -0.415345 1.999948 0.301762
v -0.415345 1.999948 -0.301762
v 0.158645 1.999948 -0.488266
v 0.513394 1.999946 -0.000000
v -0.000000 2.317240 -0.000000
v -0.093248 1.254979 0.286993
v 0.244132 1.254979 0.177370
v 0.150885 1.441478 0.464366
v 0.488265 1.441479 -0.000000
v 0.244132 1.254979 -0.177370
v -0.301765 1.254980 -0.000000
v -0.395015 1.441479 0.286994
v -0.093248 1.254979 -0.286993
v -0.395015 1.441479 -0.286994
v 0.150885 1.441478 -0.464366
v 0.545900 1.743248 0.177371
v 0.545900 1.743248 -0.177371
v -0.000000 1.743248 0.573992
v 0.337384 1.743248 0.464369
v -0.545900 1.743248 0.177371
v -0.337384 1.743248 0.464369
v -0.337384 1.743248 -0.464369
v -0.545900 1.743248 -0.177371
v 0.337384 1.743248 -0.464369
v -0.000000 1.743248 -0.573992
v 0.395015 2.045016 0.286994
v -0.150885 2.045017 0.464366
v -0.488265 2.045016 -0.000000
v -0.150885 2.045017 -0.464366
v 0.395015 2.045016 -0.286994
v 0.093248 2.231517 0.286993
v 0.301765 2.231515 -0.000000
v -0.244132 2.231516 0.177370
v -0.244132 2.231516 -0.177370
v 0.093248 2.231517 -0.286993
vn 0.2331 0.4349 -0.8698
vn 0.6367 0.4349 -0.6367
vn 0.8698 0.4349 -0.2331
vn 0.8698 0.4349 0.2331
vn 0.6367 0.4349 0.6367
vn 0.2331 0.4349 0.8698
vn -0.2331 0.4349 0.8698
vn -0.6367 0.4349 0.6367
vn -0.8698 0.4349 0.2331
vn -0.8698 0.4349 -0.2331
vn -0.0000 -1.0000 -0.0000
vn -0.6367 0.4349 -0.6367
vn -0.2331 0.4349 -0.8698
vn 0.1024 -0.9435 0.3151
vn 0.7002 -0.6617 0.2680
vn -0.2680 -0.9435 0.1947
vn -0.2680 -0.9435 -0.1947
vn 0.1024 -0.9435 -0.3151
vn 0.9050 -0.3304 0.2680
vn 0.0247 -0.3304 0.9435
vn -0.8897 -0.3304 0.3151
vn -0.5746 -0.3304 -0.7488
vn 0.5346 -0.3304 -0.7779
vn 0.8026 -0.1256 0.5831
vn -0.3066 -0.1256 0.9435
vn -0.9921 -0.1256 -0.0000
vn -0.3066 -0.1256 -0.9435
vn 0.8026 -0.1256 -0.5831
vn 0.4089 0.6617 0.6284
vn -0.4713 0.6617 0.5831
vn -0.7002 0.6617 -0.2680
vn 0.0385 0.6617 -0.7488
vn 0.7240 0.6617 -0.1947
vn 0.2680 0.9435 -0.1947
vn 0.4911 0.7947 -0.3568
vn 0.4089 0.6617 -0.6284
vn -0.1024 0.9435 -0.3151
vn -0.1876 0.7947 -0.5773
vn -0.4713 0.6617 -0.5831
vn -0.3313 0.9435 -0.0000
vn -0.6071 0.7947 -0.0000
vn -0.7002 0.6617 0.2680
vn -0.1024 0.9435 0.3151
vn -0.1876 0.7947 0.5773
vn 0.0385 0.6617 0.7488
vn 0.2680 0.9435 0.1947
vn 0.4911 0.7947 0.3568
vn 0.7240 0.6617 0.1947
vn 0.8897 0.3304 -0.3151
vn 0.7947 0.1876 -0.5773
vn 0.5746 0.3304 -0.7488
vn -0.0247 0.3304 -0.9435
vn -0.3035 0.1876 -0.9342
vn -0.5346 0.3304 -0.7779
vn -0.9050 0.3304 -0.2680
vn -0.9822 0.1876 -0.0000
vn -0.9050 0.3304 0.2680
vn -0.5346 0.3304 0.7779
vn -0.3035 0.1876 0.9342
vn -0.0247 0.3304 0.9435
vn 0.5746 0.3304 0.7488
vn 0.7947 0.1876 0.5773
vn 0.8897 0.3304 0.3151
vn 0.3066 0.1256 -0.9435
vn 0.3035 -0.1876 -0.9342
vn 0.0247 -0.3304 -0.9435
vn -0.8026 0.1256 -0.5831
vn -0.7947 -0.1876 -0.5773
vn -0.8897 -0.3304 -0.3151
vn -0.8026 0.1256 0.5831
vn -0.7947 -0.1876 0.5773
vn -0.5746 -0.3304 0.7488
vn 0.3066 0.1256 0.9435
vn 0.3035 -0.1876 0.9342
vn 0.5346 -0.3304 0.7779
vn 0.9921 0.1256 -0.0000
vn 0.9822 -0.1876 -0.0000
vn 0.9050 -0.3304 -0.2680
vn 0.4713 -0.6617 -0.5831
vn 0.1876 -0.7947 -0.5773
vn -0.0385 -0.6617 -0.7488
vn -0.4089 -0.6617 -0.6284
vn -0.4911 -0.7947 -0.3568
vn -0.7240 -0.6617 -0.1947
vn -0.7240 -0.6617 0.1947
vn -0.4911 -0.7947 0.3568
vn -0.4089 -0.6617 0.6284
vn 0.7002 -0.6617 -0.2680
vn 0.6071 -0.7947 -0.0000
vn 0.3313 -0.9435 -0.0000
vn -0.0385 -0.6617 0.7488
vn 0.1876 -0.7947 0.5773
vn 0.4713 -0.6617 0.5831
vt 0.250000 0.490000
vt 0.250000 0.250000
vt 0.370000 0.457846
vt 0.457846 0.370000
vt 0.490000 0.250000
vt 0.457846 0.130000
vt 0.370000 0.042154
vt 0.250000 0.010000
vt 0.130000 0.042154
vt 0.042154 0.130000
vt 0.010000 0.250000
vt 0.042154 0.370000
vt 0.750000 0.490000
vt 0.870000 0.457846
vt 0.957846 0.370000
vt 0.990000 0.250000
vt 0.957846 0.130000
vt 0.870000 0.042154
vt 0.750000 0.010000
vt 0.630000 0.042154
vt 0.542154 0.130000
vt 0.510000 0.250000
vt 0.542154 0.370000
vt 0.630000 0.457846
vt 0.130000 0.457846
vt 0.181819 0.000000
vt 0.227273 0.078731
vt 0.136365 0.078731
vt 0.272728 0.157461
vt 0.318182 0.078731
vt 0.363637 0.157461
vt 0.909091 0.000000
vt 0.954545 0.078731
vt 0.863636 0.078731
vt 0.727273 0.000000
vt 0.772727 0.078731
vt 0.681818 0.078731
vt 0.545455 0.000000
vt 0.590909 0.078731
vt 0.500000 0.078731
vt 0.318182 0.236191
vt 0.090910 0.157461
vt 0.181819 0.157461
vt 0.136365 0.236191
vt 0.818182 0.157461
vt 0.909091 0.157461
vt 0.863636 0.236191
vt 0.636364 0.157461
vt 0.727273 0.157461
vt 0.681818 0.236191
vt 0.454546 0.157461
vt 0.545455 0.157461
vt 0.500000 0.236191
vt 0.227273 0.236191
vt 0.045455 0.236191
vt 0.772727 0.236191
vt 0.590909 0.236191
vt 0.409092 0.236191
vt 0.181819 0.314921
vt 0.272728 0.314921
vt 0.227273 0.393651
vt 0.000000 0.314921
vt 0.090910 0.314921
vt 0.045455 0.393651
vt 0.727273 0.314921
vt 0.818182 0.314921
vt 0.772727 0.393651
vt 0.545455 0.314921
vt 0.636364 0.314921
vt 0.590909 0.393651
vt 0.363637 0.314921
vt 0.454546 0.314921
vt 0.409092 0.393651
vt 0.500000 0.393651
vt 0.454546 0.472382
vt 0.681818 0.393651
vt 0.636364 0.472382
vt 0.863636 0.393651
vt 0.818182 0.472382
vt 0.909091 0.314921
vt 0.136365 0.393651
vt 0.090910 0.472382
vt 0.318182 0.393651
vt 0.272728 0.472382
vt 0.954545 0.236191
vt 1.000000 0.157461
vt 0.409092 0.078731
vt 0.363637 0.000000
s 0
usemtl Material.001
f 1/1/1 13/2/1 2/3/1
f 2/3/2 13/2/2 3/4/2
f 3/4/3 13/2/3 4/5/3
f 4/5/4 13/2/4 5/6/4
f 5/6/5 13/2/5 6/7/5
f 6/7/6 13/2/6 7/8/6
f 7/8/7 13/2/7 8/9/7
f 8/9/8 13/2/8 9/10/8
f 9/10/9 13/2/9 10/11/9
f 10/11/10 13/2/10 11/12/10
f 1/13/11 2/14/11 3/15/11 4/16/11 5/17/11 6/18/11 7/19/11 8/20/11 9/21/11 10/22/11 11/23/11 12/24/11
f 11/12/12 13/2/12 12/25/12
f 12/25/13 13/2/13 1/1/13
f 14/26/14 27/27/14 26/28/14
f 15/29/15 27/30/15 29/31/15
f 14/32/16 26/33/16 31/34/16
f 14/35/17 31/36/17 33/37/17
f 14/38/18 33/39/18 30/40/18
f 15/29/19 29/31/19 36/41/19
f 16/42/20 28/43/20 38/44/20
f 17/45/21 32/46/21 40/47/21
f 18/48/22 34/49/22 42/50/22
f 19/51/23 35/52/23 44/53/23
f 15/29/24 36/41/24 39/54/24
f 16/42/25 38/44/25 41/55/25
f 17/45/26 40/47/26 43/56/26
f 18/48/27 42/50/27 45/57/27
f 19/51/28 44/53/28 37/58/28
f 20/59/29 46/60/29 51/61/29
f 21/62/30 47/63/30 53/64/30
f 22/65/31 48/66/31 54/67/31
f 23/68/32 49/69/32 55/70/32
f 24/71/33 50/72/33 52/73/33
f 52/73/34 55/74/34 25/75/34
f 52/73/35 50/72/35 55/74/35
f 50/72/36 23/68/36 55/74/36
f 55/70/37 54/76/37 25/77/37
f 55/70/38 49/69/38 54/76/38
f 49/69/39 22/65/39 54/76/39
f 54/67/40 53/78/40 25/79/40
f 54/67/41 48/66/41 53/78/41
f 48/66/42 21/80/42 53/78/42
f 53/64/43 51/81/43 25/82/43
f 53/64/44 47/63/44 51/81/44
f 47/63/45 20/59/45 51/81/45
f 51/61/46 52/83/46 25/84/46
f 51/61/47 46/60/47 52/83/47
f 46/60/48 24/71/48 52/83/48
f 37/58/49 50/72/49 24/71/49
f 37/58/50 44/53/50 50/72/50
f 44/53/51 23/68/51 50/72/51
f 45/57/52 49/69/52 23/68/52
f 45/57/53 42/50/53 49/69/53
f 42/50/54 22/65/54 49/69/54
f 43/56/55 48/66/55 22/65/55
f 43/56/56 40/47/56 48/66/56
f 40/47/57 21/80/57 48/66/57
f 41/55/58 47/63/58 21/62/58
f 41/55/59 38/44/59 47/63/59
f 38/44/60 20/59/60 47/63/60
f 39/54/61 46/60/61 20/59/61
f 39/54/62 36/41/62 46/60/62
f 36/41/63 24/71/63 46/60/63
f 44/53/64 45/57/64 23/68/64
f 44/53/65 35/52/65 45/57/65
f 35/52/66 18/48/66 45/57/66
f 42/50/67 43/56/67 22/65/67
f 42/50/68 34/49/68 43/56/68
f 34/49/69 17/45/69 43/56/69
f 40/47/70 41/85/70 21/80/70
f 40/47/71 32/46/71 41/85/71
f 32/46/72 16/86/72 41/85/72
f 38/44/73 39/54/73 20/59/73
f 38/44/74 28/43/74 39/54/74
f 28/43/75 15/29/75 39/54/75
f 36/41/76 37/58/76 24/71/76
f 36/41/77 29/31/77 37/58/77
f 29/31/78 19/51/78 37/58/78
f 30/40/79 35/52/79 19/51/79
f 30/40/80 33/39/80 35/52/80
f 33/39/81 18/48/81 35/52/81
f 33/37/82 34/49/82 18/48/82
f 33/37/83 31/36/83 34/49/83
f 31/36/84 17/45/84 34/49/84
f 31/34/85 32/46/85 17/45/85
f 31/34/86 26/33/86 32/46/86
f 26/33/87 16/86/87 32/46/87
f 29/31/88 30/87/88 19/51/88
f 29/31/89 27/30/89 30/87/89
f 27/30/90 14/88/90 30/87/90
f 26/28/91 28/43/91 16/42/91
f 26/28/92 27/27/92 28/43/92
f 27/27/93 15/29/93 28/43/93
