# Blender 4.0.2
# www.blender.org
mtllib PointLight.mtl
o Icosphere
v 0.000000 -1.000000 0.000000
v 0.723607 -0.447220 0.525725
v -0.276388 -0.447220 0.850649
v -0.894426 -0.447216 0.000000
v -0.276388 -0.447220 -0.850649
v 0.723607 -0.447220 -0.525725
v 0.276388 0.447220 0.850649
v -0.723607 0.447220 0.525725
v -0.723607 0.447220 -0.525725
v 0.276388 0.447220 -0.850649
v 0.894426 0.447216 0.000000
v 0.000000 1.000000 0.000000
v -0.162456 -0.850654 0.499995
v 0.425323 -0.850654 0.309011
v 0.262869 -0.525738 0.809012
v 0.850648 -0.525736 0.000000
v 0.425323 -0.850654 -0.309011
v -0.525730 -0.850652 0.000000
v -0.688189 -0.525736 0.499997
v -0.162456 -0.850654 -0.499995
v -0.688189 -0.525736 -0.499997
v 0.262869 -0.525738 -0.809012
v 0.951058 0.000000 0.309013
v 0.951058 0.000000 -0.309013
v 0.000000 0.000000 1.000000
v 0.587786 0.000000 0.809017
v -0.951058 0.000000 0.309013
v -0.587786 0.000000 0.809017
v -0.587786 0.000000 -0.809017
v -0.951058 0.000000 -0.309013
v 0.587786 0.000000 -0.809017
v 0.000000 0.000000 -1.000000
v 0.688189 0.525736 0.499997
v -0.262869 0.525738 0.809012
v -0.850648 0.525736 0.000000
v -0.262869 0.525738 -0.809012
v 0.688189 0.525736 -0.499997
v 0.162456 0.850654 0.499995
v 0.525730 0.850652 0.000000
v -0.425323 0.850654 0.309011
v -0.425323 0.850654 -0.309011
v 0.162456 0.850654 -0.499995
v 0.065577 2.450690 0.037861
v 0.065577 0.840739 0.037861
v 0.000000 2.450690 -0.075722
v 0.000000 0.840739 -0.075722
v 0.065577 2.450690 0.037861
v 0.000000 0.840739 -0.075722
v -0.065577 0.840739 0.037861
v -0.065577 2.450690 0.037861
v 0.000000 2.382853 -0.181338
v 0.000000 2.450690 -0.075722
v 0.157044 2.382853 0.090669
v 0.065577 0.840739 0.037861
v -0.157044 2.382853 0.090669
v 0.000000 2.745530 0.000000
v -0.065577 0.840739 0.037861
v -0.065577 2.450690 0.037861
v 0.157044 2.382853 0.090669
v -0.157044 2.382853 0.090669
v 0.000000 2.745530 0.000000
v -0.065577 -2.450690 0.037861
v -0.000000 -0.840739 -0.075722
v -0.000000 -2.382853 -0.181338
v -0.000000 -2.450690 -0.075722
v -0.157044 -2.382853 0.090669
v -0.065577 -0.840739 0.037861
v 0.157044 -2.382853 0.090669
v -0.000000 -2.745530 0.000000
v 0.065577 -0.840739 0.037861
v 0.065577 -2.450690 0.037861
v -0.157044 -2.382853 0.090669
v 0.157044 -2.382853 0.090669
v -0.000000 -2.745530 0.000000
v -2.450690 0.065577 0.037861
v -0.840739 0.000000 -0.075722
v -2.382853 0.000000 -0.181338
v -2.450690 0.000000 -0.075722
v -2.382853 0.157044 0.090669
v -0.840739 0.065577 0.037861
v -2.382853 -0.157043 0.090669
v -2.745530 0.000000 0.000000
v -0.840739 -0.065577 0.037861
v -2.450690 -0.065577 0.037861
v -2.382853 0.157044 0.090669
v -2.382853 -0.157043 0.090669
v -2.745530 0.000000 0.000000
v 2.450690 -0.065577 0.037861
v 0.840739 -0.000000 -0.075722
v 2.382853 -0.000000 -0.181338
v 2.450690 -0.000000 -0.075722
v 2.382853 -0.157044 0.090669
v 0.840739 -0.065577 0.037861
v 2.382853 0.157043 0.090669
v 2.745530 -0.000001 0.000000
v 0.840739 0.065577 0.037861
v 2.450690 0.065576 0.037861
v 2.382853 -0.157044 0.090669
v 2.382853 0.157043 0.090669
v 2.745530 -0.000001 0.000000
v 0.037861 -0.065577 -2.450690
v -0.075722 -0.000000 -0.840739
v -0.181339 -0.000000 -2.382853
v -0.075722 -0.000000 -2.450690
v 0.090669 -0.157044 -2.382853
v 0.037861 -0.065577 -0.840739
v 0.090669 0.157043 -2.382853
v -0.000000 -0.000001 -2.745530
v 0.037861 0.065577 -0.840739
v 0.037861 0.065576 -2.450690
v 0.090669 -0.157044 -2.382853
v 0.090669 0.157043 -2.382853
v -0.000000 -0.000001 -2.745530
v -0.037860 -0.065577 2.450690
v 0.075722 -0.000000 0.840739
v 0.181339 -0.000000 2.382853
v 0.075722 -0.000000 2.450690
v -0.090669 -0.157044 2.382853
v -0.037861 -0.065577 0.840739
v -0.090669 0.157043 2.382853
v 0.000000 -0.000001 2.745530
v -0.037861 0.065577 0.840739
v -0.037860 0.065576 2.450690
v -0.090669 -0.157044 2.382853
v -0.090669 0.157043 2.382853
v 0.000000 -0.000001 2.745530
vn -0.0000 -1.0000 -0.0000
vn 0.4253 -0.8507 0.3090
vn -0.1625 -0.8507 0.5000
vn 0.7236 -0.4472 0.5257
vn 0.8506 -0.5257 -0.0000
vn -0.5257 -0.8507 -0.0000
vn -0.1625 -0.8507 -0.5000
vn 0.4253 -0.8507 -0.3090
vn 0.9511 -0.0000 0.3090
vn -0.2764 -0.4472 0.8506
vn 0.2629 -0.5257 0.8090
vn -0.0000 -0.0000 1.0000
vn -0.8944 -0.4472 -0.0000
vn -0.6882 -0.5257 0.5000
vn -0.9511 -0.0000 0.3090
vn -0.2764 -0.4472 -0.8506
vn -0.6882 -0.5257 -0.5000
vn -0.5878 -0.0000 -0.8090
vn 0.7236 -0.4472 -0.5257
vn 0.2629 -0.5257 -0.8090
vn 0.5878 -0.0000 -0.8090
vn 0.5878 -0.0000 0.8090
vn -0.5878 -0.0000 0.8090
vn -0.9511 -0.0000 -0.3090
vn -0.0000 -0.0000 -1.0000
vn 0.9511 -0.0000 -0.3090
vn 0.2764 0.4472 0.8506
vn 0.6882 0.5257 0.5000
vn 0.1625 0.8507 0.5000
vn -0.7236 0.4472 0.5257
vn -0.2629 0.5257 0.8090
vn -0.4253 0.8507 0.3090
vn -0.7236 0.4472 -0.5257
vn -0.8506 0.5257 -0.0000
vn -0.4253 0.8507 -0.3090
vn 0.2764 0.4472 -0.8506
vn -0.2629 0.5257 -0.8090
vn 0.1625 0.8507 -0.5000
vn 0.8944 0.4472 -0.0000
vn 0.6882 0.5257 -0.5000
vn 0.5257 0.8507 -0.0000
vn -0.0000 1.0000 -0.0000
vn 0.8660 -0.0000 -0.5000
vn -0.8660 -0.0000 -0.5000
vn 0.8402 0.2425 -0.4851
vn -0.0000 0.2425 0.9701
vn -0.8402 0.2425 -0.4851
vn -0.8402 -0.2425 -0.4851
vn -0.0000 -0.2425 0.9701
vn 0.8402 -0.2425 -0.4851
vn 1.0000 -0.0000 -0.0000
vn -0.0000 -0.8660 -0.5000
vn -1.0000 -0.0000 -0.0000
vn -0.2425 0.8402 -0.4851
vn -0.2425 -0.0000 0.9701
vn -0.0000 0.8660 -0.5000
vn -0.2425 -0.8402 -0.4851
vn 0.2425 -0.8402 -0.4851
vn 0.2425 -0.0000 0.9701
vn 0.2425 0.8402 -0.4851
vn -0.5000 0.8660 -0.0000
vn -0.4851 -0.8402 -0.2425
vn 0.9701 -0.0000 -0.2425
vn -0.5000 -0.8660 -0.0000
vn -0.4851 0.8402 -0.2425
vn 0.5000 0.8660 -0.0000
vn 0.4851 -0.8402 0.2425
vn -0.9701 -0.0000 0.2425
vn 0.5000 -0.8660 -0.0000
vn 0.4851 0.8402 0.2425
vt 0.181819 0.000000
vt 0.227273 0.078731
vt 0.136365 0.078731
vt 0.272728 0.157461
vt 0.318182 0.078731
vt 0.363637 0.157461
vt 0.909091 0.000000
vt 0.954545 0.078731
vt 0.863636 0.078731
vt 0.727273 0.000000
vt 0.772727 0.078731
vt 0.681818 0.078731
vt 0.545455 0.000000
vt 0.590909 0.078731
vt 0.500000 0.078731
vt 0.318182 0.236191
vt 0.090910 0.157461
vt 0.181819 0.157461
vt 0.136365 0.236191
vt 0.818182 0.157461
vt 0.909091 0.157461
vt 0.863636 0.236191
vt 0.636364 0.157461
vt 0.727273 0.157461
vt 0.681818 0.236191
vt 0.454546 0.157461
vt 0.545455 0.157461
vt 0.500000 0.236191
vt 0.227273 0.236191
vt 0.045455 0.236191
vt 0.772727 0.236191
vt 0.590909 0.236191
vt 0.409092 0.236191
vt 0.181819 0.314921
vt 0.272728 0.314921
vt 0.227273 0.393651
vt 0.000000 0.314921
vt 0.090910 0.314921
vt 0.045455 0.393651
vt 0.727273 0.314921
vt 0.818182 0.314921
vt 0.772727 0.393651
vt 0.545455 0.314921
vt 0.636364 0.314921
vt 0.590909 0.393651
vt 0.363637 0.314921
vt 0.454546 0.314921
vt 0.409092 0.393651
vt 0.500000 0.393651
vt 0.454546 0.472382
vt 0.681818 0.393651
vt 0.636364 0.472382
vt 0.863636 0.393651
vt 0.818182 0.472382
vt 0.909091 0.314921
vt 0.136365 0.393651
vt 0.090910 0.472382
vt 0.318182 0.393651
vt 0.272728 0.472382
vt 0.954545 0.236191
vt 1.000000 0.157461
vt 0.409092 0.078731
vt 0.363637 0.000000
vt 1.000000 0.500000
vt 1.000000 1.000000
vt 0.666667 1.000000
vt 0.666667 0.500000
vt 0.750000 0.490000
vt 0.957846 0.130000
vt 0.542154 0.130000
vt 0.333333 0.500000
vt 0.333333 1.000000
vt -0.000000 1.000000
vt -0.000000 0.500000
vt 0.457846 0.130000
vt 0.250000 0.490000
vt 0.042154 0.130000
vt 0.250000 0.250000
s 1
usemtl Material.001
f 1/1/1 14/2/2 13/3/3
f 2/4/4 14/5/2 16/6/5
f 1/7/1 13/8/3 18/9/6
f 1/10/1 18/11/6 20/12/7
f 1/13/1 20/14/7 17/15/8
f 2/4/4 16/6/5 23/16/9
f 3/17/10 15/18/11 25/19/12
f 4/20/13 19/21/14 27/22/15
f 5/23/16 21/24/17 29/25/18
f 6/26/19 22/27/20 31/28/21
f 2/4/4 23/16/9 26/29/22
f 3/17/10 25/19/12 28/30/23
f 4/20/13 27/22/15 30/31/24
f 5/23/16 29/25/18 32/32/25
f 6/26/19 31/28/21 24/33/26
f 7/34/27 33/35/28 38/36/29
f 8/37/30 34/38/31 40/39/32
f 9/40/33 35/41/34 41/42/35
f 10/43/36 36/44/37 42/45/38
f 11/46/39 37/47/40 39/48/41
f 39/48/41 42/49/38 12/50/42
f 39/48/41 37/47/40 42/49/38
f 37/47/40 10/43/36 42/49/38
f 42/45/38 41/51/35 12/52/42
f 42/45/38 36/44/37 41/51/35
f 36/44/37 9/40/33 41/51/35
f 41/42/35 40/53/32 12/54/42
f 41/42/35 35/41/34 40/53/32
f 35/41/34 8/55/30 40/53/32
f 40/39/32 38/56/29 12/57/42
f 40/39/32 34/38/31 38/56/29
f 34/38/31 7/34/27 38/56/29
f 38/36/29 39/58/41 12/59/42
f 38/36/29 33/35/28 39/58/41
f 33/35/28 11/46/39 39/58/41
f 24/33/26 37/47/40 11/46/39
f 24/33/26 31/28/21 37/47/40
f 31/28/21 10/43/36 37/47/40
f 32/32/25 36/44/37 10/43/36
f 32/32/25 29/25/18 36/44/37
f 29/25/18 9/40/33 36/44/37
f 30/31/24 35/41/34 9/40/33
f 30/31/24 27/22/15 35/41/34
f 27/22/15 8/55/30 35/41/34
f 28/30/23 34/38/31 8/37/30
f 28/30/23 25/19/12 34/38/31
f 25/19/12 7/34/27 34/38/31
f 26/29/22 33/35/28 7/34/27
f 26/29/22 23/16/9 33/35/28
f 23/16/9 11/46/39 33/35/28
f 31/28/21 32/32/25 10/43/36
f 31/28/21 22/27/20 32/32/25
f 22/27/20 5/23/16 32/32/25
f 29/25/18 30/31/24 9/40/33
f 29/25/18 21/24/17 30/31/24
f 21/24/17 4/20/13 30/31/24
f 27/22/15 28/60/23 8/55/30
f 27/22/15 19/21/14 28/60/23
f 19/21/14 3/61/10 28/60/23
f 25/19/12 26/29/22 7/34/27
f 25/19/12 15/18/11 26/29/22
f 15/18/11 2/4/4 26/29/22
f 23/16/9 24/33/26 11/46/39
f 23/16/9 16/6/5 24/33/26
f 16/6/5 6/26/19 24/33/26
f 17/15/8 22/27/20 6/26/19
f 17/15/8 20/14/7 22/27/20
f 20/14/7 5/23/16 22/27/20
f 20/12/7 21/24/17 5/23/16
f 20/12/7 18/11/6 21/24/17
f 18/11/6 4/20/13 21/24/17
f 18/9/6 19/21/14 4/20/13
f 18/9/6 13/8/3 19/21/14
f 13/8/3 3/61/10 19/21/14
f 16/6/5 17/62/8 6/26/19
f 16/6/5 14/5/2 17/62/8
f 14/5/2 1/63/1 17/62/8
f 13/3/3 15/18/11 3/17/10
f 13/3/3 14/2/2 15/18/11
f 14/2/2 2/4/4 15/18/11
s 0
f 46/64/43 45/65/43 43/66/43 44/67/43
f 51/68/1 53/69/1 55/70/1
f 57/71/44 58/72/44 52/73/44 48/74/44
f 54/67/12 47/66/12 58/72/12 57/71/12
f 47/75/42 52/76/42 58/77/42
f 44/67/12 43/66/12 50/72/12 49/71/12
f 43/75/42 45/76/42 50/77/42
f 51/76/45 56/78/45 53/75/45
f 49/71/44 50/72/44 45/73/44 46/74/44
f 44/69/1 49/70/1 46/68/1
f 53/75/46 56/78/46 55/77/46
f 48/64/43 52/65/43 47/66/43 54/67/43
f 54/69/1 57/70/1 48/68/1
f 55/77/47 56/78/47 51/76/47
f 59/75/46 61/78/46 60/77/46
f 64/68/42 66/69/42 68/70/42
f 70/71/43 71/72/43 65/73/43 63/74/43
f 67/67/12 62/66/12 71/72/12 70/71/12
f 62/75/1 65/76/1 71/77/1
f 64/76/48 69/78/48 66/75/48
f 66/75/49 69/78/49 68/77/49
f 63/64/44 65/65/44 62/66/44 67/67/44
f 67/69/42 70/70/42 63/68/42
f 68/77/50 69/78/50 64/76/50
f 72/75/49 74/78/49 73/77/49
f 77/68/51 79/69/51 81/70/51
f 83/71/52 84/72/52 78/73/52 76/74/52
f 80/67/12 75/66/12 84/72/12 83/71/12
f 75/75/53 78/76/53 84/77/53
f 77/76/54 82/78/54 79/75/54
f 79/75/55 82/78/55 81/77/55
f 76/64/56 78/65/56 75/66/56 80/67/56
f 80/69/51 83/70/51 76/68/51
f 81/77/57 82/78/57 77/76/57
f 85/75/55 87/78/55 86/77/55
f 90/68/53 92/69/53 94/70/53
f 96/71/56 97/72/56 91/73/56 89/74/56
f 93/67/12 88/66/12 97/72/12 96/71/12
f 88/75/51 91/76/51 97/77/51
f 90/76/58 95/78/58 92/75/58
f 92/75/59 95/78/59 94/77/59
f 89/64/52 91/65/52 88/66/52 93/67/52
f 93/69/53 96/70/53 89/68/53
f 94/77/60 95/78/60 90/76/60
f 98/75/59 100/78/59 99/77/59
f 103/68/12 105/69/12 107/70/12
f 109/71/61 110/72/61 104/73/61 102/74/61
f 106/67/51 101/66/51 110/72/51 109/71/51
f 101/75/25 104/76/25 110/77/25
f 103/76/62 108/78/62 105/75/62
f 105/75/63 108/78/63 107/77/63
f 102/64/64 104/65/64 101/66/64 106/67/64
f 106/69/12 109/70/12 102/68/12
f 107/77/65 108/78/65 103/76/65
f 111/75/63 113/78/63 112/77/63
f 116/68/25 118/69/25 120/70/25
f 122/71/66 123/72/66 117/73/66 115/74/66
f 119/67/53 114/66/53 123/72/53 122/71/53
f 114/75/12 117/76/12 123/77/12
f 116/76/67 121/78/67 118/75/67
f 118/75/68 121/78/68 120/77/68
f 115/64/69 117/65/69 114/66/69 119/67/69
f 119/69/25 122/70/25 115/68/25
f 120/77/70 121/78/70 116/76/70
f 124/75/68 126/78/68 125/77/68
