# Blender 4.0.2
# www.blender.org
mtllib SunLight.mtl
o Icosphere
v 0.000000 -1.000000 0.000000
v 0.723607 -0.447220 0.525725
v -0.276388 -0.447220 0.850649
v -0.894426 -0.447216 0.000000
v -0.276388 -0.447220 -0.850649
v 0.723607 -0.447220 -0.525725
v 0.276388 0.447220 0.850649
v -0.723607 0.447220 0.525725
v -0.723607 0.447220 -0.525725
v 0.276388 0.447220 -0.850649
v 0.894426 0.447216 0.000000
v 0.000000 1.000000 0.000000
v -0.162456 -0.850654 0.499995
v 0.425323 -0.850654 0.309011
v 0.262869 -0.525738 0.809012
v 0.850648 -0.525736 0.000000
v 0.425323 -0.850654 -0.309011
v -0.525730 -0.850652 0.000000
v -0.688189 -0.525736 0.499997
v -0.162456 -0.850654 -0.499995
v -0.688189 -0.525736 -0.499997
v 0.262869 -0.525738 -0.809012
v 0.951058 0.000000 0.309013
v 0.951058 0.000000 -0.309013
v 0.000000 0.000000 1.000000
v 0.587786 0.000000 0.809017
v -0.951058 0.000000 0.309013
v -0.587786 0.000000 0.809017
v -0.587786 0.000000 -0.809017
v -0.951058 0.000000 -0.309013
v 0.587786 0.000000 -0.809017
v 0.000000 0.000000 -1.000000
v 0.688189 0.525736 0.499997
v -0.262869 0.525738 0.809012
v -0.850648 0.525736 0.000000
v -0.262869 0.525738 -0.809012
v 0.688189 0.525736 -0.499997
v 0.162456 0.850654 0.499995
v 0.525730 0.850652 0.000000
v -0.425323 0.850654 0.309011
v -0.425323 0.850654 -0.309011
v 0.162456 0.850654 -0.499995
v -0.850039 0.126743 0.746554
v 0.694812 0.000000 -0.901782
v 0.000000 1.128962 -0.146350
v -1.633418 0.000000 1.633419
v 0.126743 1.128962 0.073175
v -0.694812 0.000000 0.901782
v -0.126743 1.128962 0.073175
v 0.000000 2.310003 0.000000
v -1.128962 0.000000 0.146350
v -2.310003 0.000000 0.000000
v 1.128962 0.000000 -0.146350
v -1.128962 0.126743 -0.073175
v 1.128962 -0.126743 0.073175
v -1.128962 -0.126742 -0.073175
v 1.128962 0.126742 0.073175
v 2.310003 0.000000 -0.000000
v 0.146350 0.000000 1.128962
v 0.000000 0.000000 2.310003
v -0.146350 0.000000 -1.128962
v -0.073175 0.126743 1.128962
v 0.073175 -0.126743 -1.128962
v -0.073175 -0.126742 1.128962
v 0.073175 0.126742 -1.128962
v -0.000000 0.000000 -2.310003
v 0.146350 -0.798297 0.798297
v 0.000000 -1.633419 1.633419
v -0.146350 0.798297 -0.798297
v -0.073175 -0.708676 0.887917
v 0.073175 0.708676 -0.887917
v -0.073175 -0.887917 0.708676
v 0.073175 0.887917 -0.708676
v -0.000000 1.633419 -1.633419
v 0.146350 -0.798297 -0.798297
v 0.000000 -1.633418 -1.633419
v -0.146350 0.798297 0.798297
v -0.073175 -0.887917 -0.708676
v 0.073175 0.887917 0.708676
v -0.073175 -0.708676 -0.887917
v 0.073175 0.708676 0.887917
v -0.000000 1.633418 1.633419
v 0.850039 -0.126743 -0.746555
v -0.850039 -0.126742 0.746554
v 0.850039 0.126742 -0.746555
v 1.633418 0.000000 -1.633419
v 0.901782 0.000000 0.694812
v 1.633419 0.000000 1.633418
v -0.901782 0.000000 -0.694812
v 0.746555 0.126743 0.850039
v -0.746555 -0.126743 -0.850039
v 0.746555 -0.126742 0.850039
v -0.746555 0.126742 -0.850039
v -1.633419 0.000000 -1.633418
v -0.798297 0.798297 0.146350
v -1.633419 1.633419 0.000000
v -0.708676 0.887917 -0.073175
v -0.887917 0.708676 -0.073175
v 0.798297 0.798297 0.146350
v 1.633419 1.633418 0.000000
v 0.887918 0.708676 -0.073175
v 0.708677 0.887917 -0.073175
v -0.798297 -0.798297 0.146350
v -1.633419 -1.633419 0.000000
v -0.708676 -0.887917 -0.073175
v -0.887917 -0.708676 -0.073175
v 0.798297 -0.798297 0.146350
v 1.633419 -1.633418 0.000000
v 0.887918 -0.708676 -0.073175
v 0.708677 -0.887917 -0.073175
v 0.000000 -1.099042 -0.146350
v 0.126743 -1.099042 0.073175
v -0.126743 -1.099042 0.073175
v 0.000000 -7.205782 0.000000
vn 0.1024 -0.9435 0.3151
vn 0.7002 -0.6617 0.2680
vn -0.2680 -0.9435 0.1947
vn -0.2680 -0.9435 -0.1947
vn 0.1024 -0.9435 -0.3151
vn 0.9050 -0.3304 0.2680
vn 0.0247 -0.3304 0.9435
vn -0.8897 -0.3304 0.3151
vn -0.5746 -0.3304 -0.7488
vn 0.5346 -0.3304 -0.7779
vn 0.8026 -0.1256 0.5831
vn -0.3066 -0.1256 0.9435
vn -0.9921 -0.1256 -0.0000
vn -0.3066 -0.1256 -0.9435
vn 0.8026 -0.1256 -0.5831
vn 0.4089 0.6617 0.6284
vn -0.4713 0.6617 0.5831
vn -0.7002 0.6617 -0.2680
vn 0.0385 0.6617 -0.7488
vn 0.7240 0.6617 -0.1947
vn 0.2680 0.9435 -0.1947
vn 0.4911 0.7947 -0.3568
vn 0.4089 0.6617 -0.6284
vn -0.1024 0.9435 -0.3151
vn -0.1876 0.7947 -0.5773
vn -0.4713 0.6617 -0.5831
vn -0.3313 0.9435 -0.0000
vn -0.6071 0.7947 -0.0000
vn -0.7002 0.6617 0.2680
vn -0.1024 0.9435 0.3151
vn -0.1876 0.7947 0.5773
vn 0.0385 0.6617 0.7488
vn 0.2680 0.9435 0.1947
vn 0.4911 0.7947 0.3568
vn 0.7240 0.6617 0.1947
vn 0.8897 0.3304 -0.3151
vn 0.7947 0.1876 -0.5773
vn 0.5746 0.3304 -0.7488
vn -0.0247 0.3304 -0.9435
vn -0.3035 0.1876 -0.9342
vn -0.5346 0.3304 -0.7779
vn -0.9050 0.3304 -0.2680
vn -0.9822 0.1876 -0.0000
vn -0.9050 0.3304 0.2680
vn -0.5346 0.3304 0.7779
vn -0.3035 0.1876 0.9342
vn -0.0247 0.3304 0.9435
vn 0.5746 0.3304 0.7488
vn 0.7947 0.1876 0.5773
vn 0.8897 0.3304 0.3151
vn 0.3066 0.1256 -0.9435
vn 0.3035 -0.1876 -0.9342
vn 0.0247 -0.3304 -0.9435
vn -0.8026 0.1256 -0.5831
vn -0.7947 -0.1876 -0.5773
vn -0.8897 -0.3304 -0.3151
vn -0.8026 0.1256 0.5831
vn -0.7947 -0.1876 0.5773
vn -0.5746 -0.3304 0.7488
vn 0.3066 0.1256 0.9435
vn 0.3035 -0.1876 0.9342
vn 0.5346 -0.3304 0.7779
vn 0.9921 0.1256 -0.0000
vn 0.9822 -0.1876 -0.0000
vn 0.9050 -0.3304 -0.2680
vn 0.4713 -0.6617 -0.5831
vn 0.1876 -0.7947 -0.5773
vn -0.0385 -0.6617 -0.7488
vn -0.4089 -0.6617 -0.6284
vn -0.4911 -0.7947 -0.3568
vn -0.7240 -0.6617 -0.1947
vn -0.7240 -0.6617 0.1947
vn -0.4911 -0.7947 0.3568
vn -0.4089 -0.6617 0.6284
vn 0.7002 -0.6617 -0.2680
vn 0.6071 -0.7947 -0.0000
vn 0.3313 -0.9435 -0.0000
vn -0.0385 -0.6617 0.7488
vn 0.1876 -0.7947 0.5773
vn 0.4713 -0.6617 0.5831
vn 0.3091 0.8644 0.3966
vn -0.3091 -0.8644 -0.3966
vn 0.8644 0.0618 -0.4990
vn 0.7071 -0.0000 -0.7071
vn -0.0000 -1.0000 -0.0000
vn -0.0000 0.0618 0.9981
vn -0.7495 -0.0000 -0.6620
vn 1.0000 -0.0000 -0.0000
vn -0.8644 0.0618 -0.4990
vn -0.0618 0.8644 0.4990
vn 0.0618 -0.8644 -0.4990
vn -0.0618 -0.0000 -0.9981
vn -1.0000 -0.0000 -0.0000
vn 0.0618 -0.0000 0.9981
vn -0.0618 -0.8644 0.4990
vn 0.0618 0.8644 -0.4990
vn -0.0000 -0.0000 -1.0000
vn 0.4990 0.8644 0.0618
vn -0.4990 -0.8644 -0.0618
vn -0.9981 -0.0000 0.0618
vn -0.0000 -0.0000 1.0000
vn 0.9981 -0.0000 -0.0618
vn 0.4990 -0.8644 0.0618
vn -0.4990 0.8644 -0.0618
vn -0.0000 0.7071 -0.7071
vn 0.4990 0.5675 0.6549
vn -0.4990 -0.5675 -0.6549
vn -0.9981 -0.0437 0.0437
vn -0.0000 -0.7071 0.7071
vn 0.9981 0.0437 -0.0437
vn 0.4990 -0.6549 -0.5675
vn -0.4990 0.6549 0.5675
vn -0.0000 0.7071 0.7071
vn 0.4990 -0.6549 0.5675
vn -0.4990 0.6549 -0.5675
vn -0.9981 -0.0437 -0.0437
vn -0.0000 -0.7071 -0.7071
vn 0.9981 0.0437 0.0437
vn 0.4990 0.5675 -0.6549
vn -0.4990 -0.5675 0.6549
vn -0.7071 -0.0000 0.7071
vn 0.7495 -0.0000 0.6620
vn 0.3091 -0.8644 0.3966
vn -0.3091 0.8644 -0.3966
vn -0.7071 -0.0000 -0.7071
vn 0.3966 0.8644 -0.3091
vn -0.3966 -0.8644 0.3092
vn -0.6620 -0.0000 0.7495
vn 0.7071 -0.0000 0.7071
vn 0.6620 -0.0000 -0.7495
vn 0.3966 -0.8644 -0.3091
vn -0.3966 0.8644 0.3091
vn 0.7071 -0.7071 -0.0000
vn 0.5675 0.6549 0.4990
vn -0.0437 0.0437 -0.9981
vn -0.6549 -0.5675 0.4990
vn -0.7071 -0.7071 -0.0000
vn 0.6549 -0.5675 0.4990
vn 0.0437 0.0437 -0.9981
vn -0.5675 0.6549 0.4990
vn -0.5675 0.6549 -0.4990
vn 0.0437 0.0437 0.9981
vn 0.6549 -0.5675 -0.4990
vn -0.6549 -0.5675 -0.4990
vn -0.0437 0.0437 0.9981
vn 0.5675 0.6549 -0.4990
vn -0.8660 0.0120 0.5000
vn -0.0000 0.0120 -0.9999
vn 0.8660 0.0120 0.5000
vt 0.181819 0.000000
vt 0.227273 0.078731
vt 0.136365 0.078731
vt 0.272728 0.157461
vt 0.318182 0.078731
vt 0.363637 0.157461
vt 0.909091 0.000000
vt 0.954545 0.078731
vt 0.863636 0.078731
vt 0.727273 0.000000
vt 0.772727 0.078731
vt 0.681818 0.078731
vt 0.545455 0.000000
vt 0.590909 0.078731
vt 0.500000 0.078731
vt 0.318182 0.236191
vt 0.090910 0.157461
vt 0.181819 0.157461
vt 0.136365 0.236191
vt 0.818182 0.157461
vt 0.909091 0.157461
vt 0.863636 0.236191
vt 0.636364 0.157461
vt 0.727273 0.157461
vt 0.681818 0.236191
vt 0.454546 0.157461
vt 0.545455 0.157461
vt 0.500000 0.236191
vt 0.227273 0.236191
vt 0.045455 0.236191
vt 0.772727 0.236191
vt 0.590909 0.236191
vt 0.409092 0.236191
vt 0.181819 0.314921
vt 0.272728 0.314921
vt 0.227273 0.393651
vt 0.000000 0.314921
vt 0.090910 0.314921
vt 0.045455 0.393651
vt 0.727273 0.314921
vt 0.818182 0.314921
vt 0.772727 0.393651
vt 0.545455 0.314921
vt 0.636364 0.314921
vt 0.590909 0.393651
vt 0.363637 0.314921
vt 0.454546 0.314921
vt 0.409092 0.393651
vt 0.500000 0.393651
vt 0.454546 0.472382
vt 0.681818 0.393651
vt 0.636364 0.472382
vt 0.863636 0.393651
vt 0.818182 0.472382
vt 0.909091 0.314921
vt 0.136365 0.393651
vt 0.090910 0.472382
vt 0.318182 0.393651
vt 0.272728 0.472382
vt 0.954545 0.236191
vt 1.000000 0.157461
vt 0.409092 0.078731
vt 0.363637 0.000000
vt 0.042154 0.130000
vt 0.250000 0.250000
vt 0.250000 0.490000
vt 0.457846 0.130000
vt 0.750000 0.490000
vt 0.957846 0.130000
vt 0.542154 0.130000
s 0
usemtl Material.001
f 1/1/1 14/2/1 13/3/1
f 2/4/2 14/5/2 16/6/2
f 1/7/3 13/8/3 18/9/3
f 1/10/4 18/11/4 20/12/4
f 1/13/5 20/14/5 17/15/5
f 2/4/6 16/6/6 23/16/6
f 3/17/7 15/18/7 25/19/7
f 4/20/8 19/21/8 27/22/8
f 5/23/9 21/24/9 29/25/9
f 6/26/10 22/27/10 31/28/10
f 2/4/11 23/16/11 26/29/11
f 3/17/12 25/19/12 28/30/12
f 4/20/13 27/22/13 30/31/13
f 5/23/14 29/25/14 32/32/14
f 6/26/15 31/28/15 24/33/15
f 7/34/16 33/35/16 38/36/16
f 8/37/17 34/38/17 40/39/17
f 9/40/18 35/41/18 41/42/18
f 10/43/19 36/44/19 42/45/19
f 11/46/20 37/47/20 39/48/20
f 39/48/21 42/49/21 12/50/21
f 39/48/22 37/47/22 42/49/22
f 37/47/23 10/43/23 42/49/23
f 42/45/24 41/51/24 12/52/24
f 42/45/25 36/44/25 41/51/25
f 36/44/26 9/40/26 41/51/26
f 41/42/27 40/53/27 12/54/27
f 41/42/28 35/41/28 40/53/28
f 35/41/29 8/55/29 40/53/29
f 40/39/30 38/56/30 12/57/30
f 40/39/31 34/38/31 38/56/31
f 34/38/32 7/34/32 38/56/32
f 38/36/33 39/58/33 12/59/33
f 38/36/34 33/35/34 39/58/34
f 33/35/35 11/46/35 39/58/35
f 24/33/36 37/47/36 11/46/36
f 24/33/37 31/28/37 37/47/37
f 31/28/38 10/43/38 37/47/38
f 32/32/39 36/44/39 10/43/39
f 32/32/40 29/25/40 36/44/40
f 29/25/41 9/40/41 36/44/41
f 30/31/42 35/41/42 9/40/42
f 30/31/43 27/22/43 35/41/43
f 27/22/44 8/55/44 35/41/44
f 28/30/45 34/38/45 8/37/45
f 28/30/46 25/19/46 34/38/46
f 25/19/47 7/34/47 34/38/47
f 26/29/48 33/35/48 7/34/48
f 26/29/49 23/16/49 33/35/49
f 23/16/50 11/46/50 33/35/50
f 31/28/51 32/32/51 10/43/51
f 31/28/52 22/27/52 32/32/52
f 22/27/53 5/23/53 32/32/53
f 29/25/54 30/31/54 9/40/54
f 29/25/55 21/24/55 30/31/55
f 21/24/56 4/20/56 30/31/56
f 27/22/57 28/60/57 8/55/57
f 27/22/58 19/21/58 28/60/58
f 19/21/59 3/61/59 28/60/59
f 25/19/60 26/29/60 7/34/60
f 25/19/61 15/18/61 26/29/61
f 15/18/62 2/4/62 26/29/62
f 23/16/63 24/33/63 11/46/63
f 23/16/64 16/6/64 24/33/64
f 16/6/65 6/26/65 24/33/65
f 17/15/66 22/27/66 6/26/66
f 17/15/67 20/14/67 22/27/67
f 20/14/68 5/23/68 22/27/68
f 20/12/69 21/24/69 5/23/69
f 20/12/70 18/11/70 21/24/70
f 18/11/71 4/20/71 21/24/71
f 18/9/72 19/21/72 4/20/72
f 18/9/73 13/8/73 19/21/73
f 13/8/74 3/61/74 19/21/74
f 16/6/75 17/62/75 6/26/75
f 16/6/76 14/5/76 17/62/76
f 14/5/77 1/63/77 17/62/77
f 13/3/78 15/18/78 3/17/78
f 13/3/79 14/2/79 15/18/79
f 14/2/80 2/4/80 15/18/80
f 43/64/81 46/65/81 48/66/81
f 44/66/82 86/65/82 83/67/82
f 45/66/83 50/65/83 47/67/83
f 48/68/84 84/69/84 43/70/84
f 45/68/85 47/69/85 49/70/85
f 47/67/86 50/65/86 49/64/86
f 84/67/87 46/65/87 43/64/87
f 51/68/88 56/69/88 54/70/88
f 49/64/89 50/65/89 45/66/89
f 54/64/90 52/65/90 51/66/90
f 53/66/91 58/65/91 55/67/91
f 56/67/92 52/65/92 54/64/92
f 53/68/93 55/69/93 57/70/93
f 55/67/94 58/65/94 57/64/94
f 51/66/95 52/65/95 56/67/95
f 57/64/96 58/65/96 53/66/96
f 59/68/97 64/69/97 62/70/97
f 62/64/98 60/65/98 59/66/98
f 61/66/99 66/65/99 63/67/99
f 64/67/100 60/65/100 62/64/100
f 61/68/101 63/69/101 65/70/101
f 63/67/102 66/65/102 65/64/102
f 59/66/103 60/65/103 64/67/103
f 65/64/104 66/65/104 61/66/104
f 67/68/105 72/69/105 70/70/105
f 70/64/106 68/65/106 67/66/106
f 69/66/107 74/65/107 71/67/107
f 72/67/108 68/65/108 70/64/108
f 69/68/109 71/69/109 73/70/109
f 71/67/110 74/65/110 73/64/110
f 67/66/111 68/65/111 72/67/111
f 73/64/112 74/65/112 69/66/112
f 75/68/113 80/69/113 78/70/113
f 78/64/114 76/65/114 75/66/114
f 77/66/115 82/65/115 79/67/115
f 80/67/116 76/65/116 78/64/116
f 77/68/117 79/69/117 81/70/117
f 79/67/118 82/65/118 81/64/118
f 75/66/119 76/65/119 80/67/119
f 81/64/120 82/65/120 77/66/120
f 44/68/121 83/69/121 85/70/121
f 83/67/122 86/65/122 85/64/122
f 48/66/123 46/65/123 84/67/123
f 85/64/124 86/65/124 44/66/124
f 87/68/125 92/69/125 90/70/125
f 90/64/126 88/65/126 87/66/126
f 89/66/127 94/65/127 91/67/127
f 92/67/128 88/65/128 90/64/128
f 89/68/129 91/69/129 93/70/129
f 91/67/130 94/65/130 93/64/130
f 87/66/131 88/65/131 92/67/131
f 93/64/132 94/65/132 89/66/132
f 95/68/133 98/69/133 97/70/133
f 97/64/134 96/65/134 95/66/134
f 98/67/135 96/65/135 97/64/135
f 95/66/136 96/65/136 98/67/136
f 99/68/137 102/69/137 101/70/137
f 101/64/138 100/65/138 99/66/138
f 102/67/139 100/65/139 101/64/139
f 99/66/140 100/65/140 102/67/140
f 103/68/137 106/69/137 105/70/137
f 105/64/141 104/65/141 103/66/141
f 106/67/142 104/65/142 105/64/142
f 103/66/143 104/65/143 106/67/143
f 107/68/133 110/69/133 109/70/133
f 109/64/144 108/65/144 107/66/144
f 110/67/145 108/65/145 109/64/145
f 107/66/146 108/65/146 110/67/146
f 111/66/147 114/65/147 112/67/147
f 111/68/85 112/69/85 113/70/85
f 112/67/148 114/65/148 113/64/148
f 113/64/149 114/65/149 111/66/149
